<svg xmlns="http://www.w3.org/2000/svg" xmlns:xlink="http://www.w3.org/1999/xlink" width="180" viewBox="0 0 135 44.999999" height="60" preserveAspectRatio="xMidYMid meet"><defs><g></g><clipPath id="e687bd9303"><path d="M 98 22 L 115 22 L 115 43 L 98 43 Z M 98 22 " clip-rule="nonzero"></path></clipPath><clipPath id="d2f8402848"><path d="M 107.386719 20.234375 L 114.863281 23.726562 L 105.335938 44.109375 L 97.859375 40.617188 Z M 107.386719 20.234375 " clip-rule="nonzero"></path></clipPath><clipPath id="42951f36a3"><path d="M 107.386719 20.234375 L 114.863281 23.726562 L 105.335938 44.109375 L 97.859375 40.617188 Z M 107.386719 20.234375 " clip-rule="nonzero"></path></clipPath><clipPath id="ab5ae7b66e"><path d="M 98 39 L 102 39 L 102 42 L 98 42 Z M 98 39 " clip-rule="nonzero"></path></clipPath><clipPath id="c800d98c11"><path d="M 107.386719 20.234375 L 114.863281 23.726562 L 105.335938 44.109375 L 97.859375 40.617188 Z M 107.386719 20.234375 " clip-rule="nonzero"></path></clipPath><clipPath id="91123200a7"><path d="M 107.386719 20.234375 L 114.863281 23.726562 L 105.335938 44.109375 L 97.859375 40.617188 Z M 107.386719 20.234375 " clip-rule="nonzero"></path></clipPath><clipPath id="f007d3cc9b"><path d="M 98 38 L 102 38 L 102 41 L 98 41 Z M 98 38 " clip-rule="nonzero"></path></clipPath><clipPath id="7cceb19a53"><path d="M 107.386719 20.234375 L 114.863281 23.726562 L 105.335938 44.109375 L 97.859375 40.617188 Z M 107.386719 20.234375 " clip-rule="nonzero"></path></clipPath><clipPath id="6b9175e433"><path d="M 107.386719 20.234375 L 114.863281 23.726562 L 105.335938 44.109375 L 97.859375 40.617188 Z M 107.386719 20.234375 " clip-rule="nonzero"></path></clipPath><clipPath id="f6f49bff91"><path d="M 99 38 L 102 38 L 102 40 L 99 40 Z M 99 38 " clip-rule="nonzero"></path></clipPath><clipPath id="04120d7f4a"><path d="M 107.386719 20.234375 L 114.863281 23.726562 L 105.335938 44.109375 L 97.859375 40.617188 Z M 107.386719 20.234375 " clip-rule="nonzero"></path></clipPath><clipPath id="4f6befaf8f"><path d="M 107.386719 20.234375 L 114.863281 23.726562 L 105.335938 44.109375 L 97.859375 40.617188 Z M 107.386719 20.234375 " clip-rule="nonzero"></path></clipPath><clipPath id="0056ec9b91"><path d="M 99 37 L 103 37 L 103 40 L 99 40 Z M 99 37 " clip-rule="nonzero"></path></clipPath><clipPath id="d4c5bbf455"><path d="M 107.386719 20.234375 L 114.863281 23.726562 L 105.335938 44.109375 L 97.859375 40.617188 Z M 107.386719 20.234375 " clip-rule="nonzero"></path></clipPath><clipPath id="cf1391272e"><path d="M 107.386719 20.234375 L 114.863281 23.726562 L 105.335938 44.109375 L 97.859375 40.617188 Z M 107.386719 20.234375 " clip-rule="nonzero"></path></clipPath><clipPath id="759a12ab8d"><path d="M 100 36 L 103 36 L 103 39 L 100 39 Z M 100 36 " clip-rule="nonzero"></path></clipPath><clipPath id="8233631266"><path d="M 107.386719 20.234375 L 114.863281 23.726562 L 105.335938 44.109375 L 97.859375 40.617188 Z M 107.386719 20.234375 " clip-rule="nonzero"></path></clipPath><clipPath id="5294f181c9"><path d="M 107.386719 20.234375 L 114.863281 23.726562 L 105.335938 44.109375 L 97.859375 40.617188 Z M 107.386719 20.234375 " clip-rule="nonzero"></path></clipPath><clipPath id="cff731970d"><path d="M 100 36 L 104 36 L 104 39 L 100 39 Z M 100 36 " clip-rule="nonzero"></path></clipPath><clipPath id="04bfb96f85"><path d="M 107.386719 20.234375 L 114.863281 23.726562 L 105.335938 44.109375 L 97.859375 40.617188 Z M 107.386719 20.234375 " clip-rule="nonzero"></path></clipPath><clipPath id="e3c1e2900b"><path d="M 107.386719 20.234375 L 114.863281 23.726562 L 105.335938 44.109375 L 97.859375 40.617188 Z M 107.386719 20.234375 " clip-rule="nonzero"></path></clipPath><clipPath id="664263998a"><path d="M 101 35 L 104 35 L 104 38 L 101 38 Z M 101 35 " clip-rule="nonzero"></path></clipPath><clipPath id="6db212265c"><path d="M 107.386719 20.234375 L 114.863281 23.726562 L 105.335938 44.109375 L 97.859375 40.617188 Z M 107.386719 20.234375 " clip-rule="nonzero"></path></clipPath><clipPath id="680f9bcf2c"><path d="M 107.386719 20.234375 L 114.863281 23.726562 L 105.335938 44.109375 L 97.859375 40.617188 Z M 107.386719 20.234375 " clip-rule="nonzero"></path></clipPath><clipPath id="bc28e596d1"><path d="M 101 34 L 105 34 L 105 37 L 101 37 Z M 101 34 " clip-rule="nonzero"></path></clipPath><clipPath id="88e77b6b3d"><path d="M 107.386719 20.234375 L 114.863281 23.726562 L 105.335938 44.109375 L 97.859375 40.617188 Z M 107.386719 20.234375 " clip-rule="nonzero"></path></clipPath><clipPath id="367af14e09"><path d="M 107.386719 20.234375 L 114.863281 23.726562 L 105.335938 44.109375 L 97.859375 40.617188 Z M 107.386719 20.234375 " clip-rule="nonzero"></path></clipPath><clipPath id="1a5834a392"><path d="M 102 34 L 105 34 L 105 37 L 102 37 Z M 102 34 " clip-rule="nonzero"></path></clipPath><clipPath id="3e0b96ec96"><path d="M 107.386719 20.234375 L 114.863281 23.726562 L 105.335938 44.109375 L 97.859375 40.617188 Z M 107.386719 20.234375 " clip-rule="nonzero"></path></clipPath><clipPath id="764a1e8b5d"><path d="M 107.386719 20.234375 L 114.863281 23.726562 L 105.335938 44.109375 L 97.859375 40.617188 Z M 107.386719 20.234375 " clip-rule="nonzero"></path></clipPath><clipPath id="659894d58e"><path d="M 102 33 L 106 33 L 106 36 L 102 36 Z M 102 33 " clip-rule="nonzero"></path></clipPath><clipPath id="4dd1c0e566"><path d="M 107.386719 20.234375 L 114.863281 23.726562 L 105.335938 44.109375 L 97.859375 40.617188 Z M 107.386719 20.234375 " clip-rule="nonzero"></path></clipPath><clipPath id="5d73672c8a"><path d="M 107.386719 20.234375 L 114.863281 23.726562 L 105.335938 44.109375 L 97.859375 40.617188 Z M 107.386719 20.234375 " clip-rule="nonzero"></path></clipPath><clipPath id="b8c22cd337"><path d="M 103 32 L 106 32 L 106 35 L 103 35 Z M 103 32 " clip-rule="nonzero"></path></clipPath><clipPath id="2d1134d107"><path d="M 107.386719 20.234375 L 114.863281 23.726562 L 105.335938 44.109375 L 97.859375 40.617188 Z M 107.386719 20.234375 " clip-rule="nonzero"></path></clipPath><clipPath id="95ecfa641f"><path d="M 107.386719 20.234375 L 114.863281 23.726562 L 105.335938 44.109375 L 97.859375 40.617188 Z M 107.386719 20.234375 " clip-rule="nonzero"></path></clipPath><clipPath id="b94cfb0897"><path d="M 103 32 L 107 32 L 107 35 L 103 35 Z M 103 32 " clip-rule="nonzero"></path></clipPath><clipPath id="97f48a869a"><path d="M 107.386719 20.234375 L 114.863281 23.726562 L 105.335938 44.109375 L 97.859375 40.617188 Z M 107.386719 20.234375 " clip-rule="nonzero"></path></clipPath><clipPath id="b807a00fb0"><path d="M 107.386719 20.234375 L 114.863281 23.726562 L 105.335938 44.109375 L 97.859375 40.617188 Z M 107.386719 20.234375 " clip-rule="nonzero"></path></clipPath><clipPath id="97bc4f904e"><path d="M 103 31 L 107 31 L 107 34 L 103 34 Z M 103 31 " clip-rule="nonzero"></path></clipPath><clipPath id="9dacb4fe99"><path d="M 107.386719 20.234375 L 114.863281 23.726562 L 105.335938 44.109375 L 97.859375 40.617188 Z M 107.386719 20.234375 " clip-rule="nonzero"></path></clipPath><clipPath id="dedfd159d7"><path d="M 107.386719 20.234375 L 114.863281 23.726562 L 105.335938 44.109375 L 97.859375 40.617188 Z M 107.386719 20.234375 " clip-rule="nonzero"></path></clipPath><clipPath id="eb8737060a"><path d="M 104 30 L 108 30 L 108 33 L 104 33 Z M 104 30 " clip-rule="nonzero"></path></clipPath><clipPath id="0765380be0"><path d="M 107.386719 20.234375 L 114.863281 23.726562 L 105.335938 44.109375 L 97.859375 40.617188 Z M 107.386719 20.234375 " clip-rule="nonzero"></path></clipPath><clipPath id="6e3b640e56"><path d="M 107.386719 20.234375 L 114.863281 23.726562 L 105.335938 44.109375 L 97.859375 40.617188 Z M 107.386719 20.234375 " clip-rule="nonzero"></path></clipPath><clipPath id="a14496b972"><path d="M 105 29 L 109 29 L 109 32 L 105 32 Z M 105 29 " clip-rule="nonzero"></path></clipPath><clipPath id="894b0be531"><path d="M 107.386719 20.234375 L 114.863281 23.726562 L 105.335938 44.109375 L 97.859375 40.617188 Z M 107.386719 20.234375 " clip-rule="nonzero"></path></clipPath><clipPath id="5f3994f4ae"><path d="M 107.386719 20.234375 L 114.863281 23.726562 L 105.335938 44.109375 L 97.859375 40.617188 Z M 107.386719 20.234375 " clip-rule="nonzero"></path></clipPath><clipPath id="61b27a7725"><path d="M 105 28 L 109 28 L 109 31 L 105 31 Z M 105 28 " clip-rule="nonzero"></path></clipPath><clipPath id="31bc544635"><path d="M 107.386719 20.234375 L 114.863281 23.726562 L 105.335938 44.109375 L 97.859375 40.617188 Z M 107.386719 20.234375 " clip-rule="nonzero"></path></clipPath><clipPath id="135e234910"><path d="M 107.386719 20.234375 L 114.863281 23.726562 L 105.335938 44.109375 L 97.859375 40.617188 Z M 107.386719 20.234375 " clip-rule="nonzero"></path></clipPath><clipPath id="b0655e9906"><path d="M 106 28 L 110 28 L 110 31 L 106 31 Z M 106 28 " clip-rule="nonzero"></path></clipPath><clipPath id="068a4db6d2"><path d="M 107.386719 20.234375 L 114.863281 23.726562 L 105.335938 44.109375 L 97.859375 40.617188 Z M 107.386719 20.234375 " clip-rule="nonzero"></path></clipPath><clipPath id="cc9b375565"><path d="M 107.386719 20.234375 L 114.863281 23.726562 L 105.335938 44.109375 L 97.859375 40.617188 Z M 107.386719 20.234375 " clip-rule="nonzero"></path></clipPath><clipPath id="0e0fd8f005"><path d="M 106 27 L 110 27 L 110 30 L 106 30 Z M 106 27 " clip-rule="nonzero"></path></clipPath><clipPath id="e0bc2576b2"><path d="M 107.386719 20.234375 L 114.863281 23.726562 L 105.335938 44.109375 L 97.859375 40.617188 Z M 107.386719 20.234375 " clip-rule="nonzero"></path></clipPath><clipPath id="502edc31d1"><path d="M 107.386719 20.234375 L 114.863281 23.726562 L 105.335938 44.109375 L 97.859375 40.617188 Z M 107.386719 20.234375 " clip-rule="nonzero"></path></clipPath><clipPath id="771c7da9e2"><path d="M 107 26 L 111 26 L 111 29 L 107 29 Z M 107 26 " clip-rule="nonzero"></path></clipPath><clipPath id="2044193334"><path d="M 107.386719 20.234375 L 114.863281 23.726562 L 105.335938 44.109375 L 97.859375 40.617188 Z M 107.386719 20.234375 " clip-rule="nonzero"></path></clipPath><clipPath id="b120b7ba57"><path d="M 107.386719 20.234375 L 114.863281 23.726562 L 105.335938 44.109375 L 97.859375 40.617188 Z M 107.386719 20.234375 " clip-rule="nonzero"></path></clipPath><clipPath id="373c0974aa"><path d="M 108 25 L 112 25 L 112 28 L 108 28 Z M 108 25 " clip-rule="nonzero"></path></clipPath><clipPath id="70dead3919"><path d="M 107.386719 20.234375 L 114.863281 23.726562 L 105.335938 44.109375 L 97.859375 40.617188 Z M 107.386719 20.234375 " clip-rule="nonzero"></path></clipPath><clipPath id="24a7a821a9"><path d="M 107.386719 20.234375 L 114.863281 23.726562 L 105.335938 44.109375 L 97.859375 40.617188 Z M 107.386719 20.234375 " clip-rule="nonzero"></path></clipPath><clipPath id="3bb3a6630e"><path d="M 108 24 L 112 24 L 112 27 L 108 27 Z M 108 24 " clip-rule="nonzero"></path></clipPath><clipPath id="16764b51d3"><path d="M 107.386719 20.234375 L 114.863281 23.726562 L 105.335938 44.109375 L 97.859375 40.617188 Z M 107.386719 20.234375 " clip-rule="nonzero"></path></clipPath><clipPath id="67cb497c14"><path d="M 107.386719 20.234375 L 114.863281 23.726562 L 105.335938 44.109375 L 97.859375 40.617188 Z M 107.386719 20.234375 " clip-rule="nonzero"></path></clipPath><clipPath id="5b0ddbf0c5"><path d="M 108 24 L 113 24 L 113 27 L 108 27 Z M 108 24 " clip-rule="nonzero"></path></clipPath><clipPath id="b27127f5ea"><path d="M 107.386719 20.234375 L 114.863281 23.726562 L 105.335938 44.109375 L 97.859375 40.617188 Z M 107.386719 20.234375 " clip-rule="nonzero"></path></clipPath><clipPath id="fb49bea637"><path d="M 107.386719 20.234375 L 114.863281 23.726562 L 105.335938 44.109375 L 97.859375 40.617188 Z M 107.386719 20.234375 " clip-rule="nonzero"></path></clipPath><clipPath id="807945d100"><path d="M 109 23 L 113 23 L 113 26 L 109 26 Z M 109 23 " clip-rule="nonzero"></path></clipPath><clipPath id="4c961f84fa"><path d="M 107.386719 20.234375 L 114.863281 23.726562 L 105.335938 44.109375 L 97.859375 40.617188 Z M 107.386719 20.234375 " clip-rule="nonzero"></path></clipPath><clipPath id="772f790a22"><path d="M 107.386719 20.234375 L 114.863281 23.726562 L 105.335938 44.109375 L 97.859375 40.617188 Z M 107.386719 20.234375 " clip-rule="nonzero"></path></clipPath><clipPath id="c68974fdcf"><path d="M 109 22 L 114 22 L 114 26 L 109 26 Z M 109 22 " clip-rule="nonzero"></path></clipPath><clipPath id="83909ec789"><path d="M 107.386719 20.234375 L 114.863281 23.726562 L 105.335938 44.109375 L 97.859375 40.617188 Z M 107.386719 20.234375 " clip-rule="nonzero"></path></clipPath><clipPath id="98490fd9a5"><path d="M 107.386719 20.234375 L 114.863281 23.726562 L 105.335938 44.109375 L 97.859375 40.617188 Z M 107.386719 20.234375 " clip-rule="nonzero"></path></clipPath><clipPath id="3c2cb664ff"><path d="M 102 26 L 114 26 L 114 42 L 102 42 Z M 102 26 " clip-rule="nonzero"></path></clipPath><clipPath id="c0d978b797"><path d="M 107.386719 20.234375 L 114.863281 23.726562 L 105.335938 44.109375 L 97.859375 40.617188 Z M 107.386719 20.234375 " clip-rule="nonzero"></path></clipPath><clipPath id="075cdb7e01"><path d="M 107.386719 20.234375 L 114.863281 23.726562 L 105.335938 44.109375 L 97.859375 40.617188 Z M 107.386719 20.234375 " clip-rule="nonzero"></path></clipPath><clipPath id="6d574efb9a"><path d="M 21 0 L 38 0 L 38 30 L 21 30 Z M 21 0 " clip-rule="nonzero"></path></clipPath><clipPath id="6c183722e1"><path d="M 34.859375 0 L 43.777344 5.542969 L 28.734375 29.75 L 19.816406 24.207031 Z M 34.859375 0 " clip-rule="nonzero"></path></clipPath><clipPath id="84452adafa"><path d="M 34.859375 0 L 43.777344 5.542969 L 28.734375 29.75 L 19.816406 24.207031 Z M 34.859375 0 " clip-rule="nonzero"></path></clipPath></defs><g clip-path="url(#e687bd9303)"><g clip-path="url(#d2f8402848)"><g clip-path="url(#42951f36a3)"><path fill="#eeba2b" d="M 113.96875 25.886719 L 102.246094 41.386719 C 101.75 42.109375 100.753906 42.300781 100.027344 41.804688 L 98.582031 40.820312 C 98.214844 40.570312 98.117188 40.0625 98.367188 39.695312 L 98.484375 39.523438 L 100.976562 41.21875 C 101.054688 41.277344 101.164062 41.253906 101.222656 41.175781 L 101.257812 41.117188 C 101.3125 41.039062 101.292969 40.925781 101.210938 40.871094 L 98.722656 39.175781 L 98.941406 38.855469 L 101.457031 40.566406 C 101.539062 40.625 101.648438 40.601562 101.703125 40.523438 L 101.742188 40.464844 C 101.796875 40.386719 101.773438 40.273438 101.695312 40.21875 L 99.175781 38.507812 L 99.394531 38.183594 L 101.9375 39.914062 C 102.019531 39.972656 102.128906 39.949219 102.183594 39.871094 L 102.222656 39.8125 C 102.277344 39.734375 102.257812 39.621094 102.175781 39.566406 L 99.632812 37.835938 L 99.851562 37.515625 L 102.417969 39.261719 C 102.5 39.320312 102.609375 39.296875 102.664062 39.21875 L 102.703125 39.160156 C 102.757812 39.082031 102.738281 38.96875 102.65625 38.914062 L 100.089844 37.167969 L 100.308594 36.847656 L 102.902344 38.613281 C 102.980469 38.667969 103.09375 38.644531 103.148438 38.566406 L 103.183594 38.507812 C 103.238281 38.429688 103.21875 38.316406 103.136719 38.261719 L 100.546875 36.496094 L 100.765625 36.175781 L 103.382812 37.960938 C 103.464844 38.015625 103.574219 37.992188 103.628906 37.914062 L 103.667969 37.855469 C 103.722656 37.777344 103.699219 37.664062 103.621094 37.609375 L 101 35.828125 L 101.21875 35.507812 L 103.863281 37.308594 C 103.945312 37.363281 104.054688 37.339844 104.109375 37.261719 L 104.148438 37.203125 C 104.203125 37.125 104.183594 37.011719 104.101562 36.957031 L 101.457031 35.15625 L 101.675781 34.835938 L 104.34375 36.65625 C 104.425781 36.710938 104.535156 36.6875 104.589844 36.609375 L 104.628906 36.550781 C 104.683594 36.472656 104.664062 36.359375 104.582031 36.304688 L 101.914062 34.488281 L 102.132812 34.167969 L 104.828125 36.003906 C 104.90625 36.058594 105.019531 36.035156 105.074219 35.957031 L 105.109375 35.898438 C 105.164062 35.820312 105.144531 35.707031 105.0625 35.652344 L 102.367188 33.820312 L 102.589844 33.496094 L 105.308594 35.351562 C 105.390625 35.40625 105.5 35.382812 105.554688 35.304688 L 105.59375 35.246094 C 105.648438 35.167969 105.625 35.054688 105.546875 35 L 102.824219 33.148438 L 103.042969 32.828125 L 105.789062 34.699219 C 105.871094 34.753906 105.980469 34.730469 106.035156 34.652344 L 106.074219 34.59375 C 106.128906 34.515625 106.109375 34.402344 106.027344 34.347656 L 103.28125 32.480469 L 103.5 32.15625 L 106.269531 34.046875 C 106.351562 34.101562 106.460938 34.078125 106.515625 34 L 106.554688 33.941406 C 106.609375 33.863281 106.589844 33.75 106.507812 33.695312 L 103.738281 31.808594 L 103.957031 31.488281 L 106.753906 33.394531 C 106.832031 33.449219 106.945312 33.425781 107 33.347656 L 107.035156 33.289062 C 107.089844 33.210938 107.070312 33.097656 106.988281 33.042969 L 104.191406 31.140625 L 104.410156 30.820312 L 107.234375 32.742188 C 107.316406 32.796875 107.425781 32.773438 107.480469 32.695312 L 107.519531 32.636719 C 107.574219 32.558594 107.550781 32.449219 107.472656 32.390625 L 104.648438 30.46875 L 104.867188 30.148438 L 107.714844 32.089844 C 107.796875 32.144531 107.90625 32.121094 107.960938 32.042969 L 108 31.984375 C 108.054688 31.90625 108.035156 31.796875 107.953125 31.738281 L 105.105469 29.800781 L 105.324219 29.480469 L 108.199219 31.4375 C 108.277344 31.492188 108.386719 31.46875 108.441406 31.390625 L 108.480469 31.332031 C 108.535156 31.253906 108.515625 31.144531 108.433594 31.085938 L 105.5625 29.132812 L 105.78125 28.808594 L 108.679688 30.785156 C 108.757812 30.839844 108.871094 30.816406 108.925781 30.738281 L 108.960938 30.679688 C 109.019531 30.601562 108.996094 30.492188 108.914062 30.433594 L 106.015625 28.460938 L 106.234375 28.140625 L 109.160156 30.132812 C 109.242188 30.1875 109.351562 30.164062 109.40625 30.085938 L 109.445312 30.027344 C 109.5 29.949219 109.476562 29.839844 109.398438 29.78125 L 106.472656 27.792969 L 106.691406 27.46875 L 109.640625 29.480469 C 109.722656 29.535156 109.832031 29.511719 109.886719 29.433594 L 109.925781 29.375 C 109.980469 29.296875 109.960938 29.1875 109.878906 29.128906 L 106.929688 27.121094 L 107.148438 26.800781 L 110.125 28.828125 C 110.203125 28.882812 110.3125 28.859375 110.371094 28.78125 L 110.40625 28.722656 C 110.460938 28.644531 110.441406 28.535156 110.359375 28.476562 L 107.386719 26.453125 L 107.605469 26.132812 L 110.605469 28.175781 C 110.6875 28.230469 110.796875 28.207031 110.851562 28.128906 L 110.886719 28.070312 C 110.945312 27.992188 110.921875 27.882812 110.84375 27.824219 L 107.839844 25.78125 L 108.058594 25.460938 L 111.085938 27.523438 C 111.167969 27.578125 111.277344 27.554688 111.332031 27.476562 L 111.371094 27.417969 C 111.425781 27.339844 111.402344 27.230469 111.324219 27.171875 L 108.296875 25.113281 L 108.515625 24.792969 L 111.566406 26.871094 C 111.648438 26.925781 111.757812 26.902344 111.8125 26.824219 L 111.851562 26.765625 C 111.90625 26.6875 111.886719 26.578125 111.804688 26.519531 L 108.753906 24.445312 L 108.972656 24.121094 L 112.050781 26.21875 C 112.128906 26.273438 112.238281 26.25 112.292969 26.171875 L 112.332031 26.113281 C 112.386719 26.035156 112.367188 25.925781 112.285156 25.867188 L 109.210938 23.773438 L 109.429688 23.453125 L 112.53125 25.566406 C 112.609375 25.621094 112.722656 25.597656 112.777344 25.519531 L 112.8125 25.460938 C 112.871094 25.382812 112.847656 25.273438 112.769531 25.214844 L 109.664062 23.105469 L 109.882812 22.78125 L 113.011719 24.914062 C 113.09375 24.96875 113.203125 24.945312 113.257812 24.867188 L 113.296875 24.808594 C 113.351562 24.730469 113.328125 24.621094 113.25 24.5625 L 110.121094 22.433594 L 110.175781 22.355469 C 110.425781 21.984375 110.933594 21.890625 111.304688 22.140625 L 113.546875 23.667969 C 114.273438 24.164062 114.460938 25.160156 113.96875 25.886719 Z M 113.96875 25.886719 " fill-opacity="1" fill-rule="nonzero"></path></g></g></g><g clip-path="url(#ab5ae7b66e)"><g clip-path="url(#c800d98c11)"><g clip-path="url(#91123200a7)"><path fill="#2e2e2e" d="M 100.972656 41.253906 C 100.96875 41.253906 100.96875 41.253906 100.964844 41.253906 L 98.476562 39.554688 C 98.457031 39.542969 98.449219 39.515625 98.464844 39.496094 C 98.476562 39.476562 98.503906 39.472656 98.523438 39.484375 L 101.015625 41.179688 C 101.035156 41.195312 101.039062 41.222656 101.027344 41.242188 C 101.015625 41.257812 100.992188 41.265625 100.972656 41.253906 Z M 100.972656 41.253906 " fill-opacity="1" fill-rule="nonzero"></path></g></g></g><g clip-path="url(#f007d3cc9b)"><g clip-path="url(#7cceb19a53)"><g clip-path="url(#6b9175e433)"><path fill="#2e2e2e" d="M 101.453125 40.605469 C 101.449219 40.605469 101.449219 40.605469 101.445312 40.601562 L 98.929688 38.890625 C 98.910156 38.875 98.90625 38.847656 98.917969 38.828125 C 98.933594 38.808594 98.960938 38.804688 98.980469 38.816406 L 101.363281 40.441406 C 101.367188 40.445312 101.367188 40.445312 101.371094 40.445312 L 101.496094 40.53125 C 101.515625 40.546875 101.519531 40.570312 101.507812 40.589844 C 101.492188 40.609375 101.472656 40.613281 101.453125 40.605469 Z M 101.453125 40.605469 " fill-opacity="1" fill-rule="nonzero"></path></g></g></g><g clip-path="url(#f6f49bff91)"><g clip-path="url(#04120d7f4a)"><g clip-path="url(#4f6befaf8f)"><path fill="#2e2e2e" d="M 101.933594 39.957031 C 101.929688 39.957031 101.929688 39.953125 101.925781 39.953125 L 99.386719 38.222656 C 99.367188 38.207031 99.363281 38.183594 99.375 38.164062 C 99.386719 38.144531 99.414062 38.136719 99.433594 38.152344 L 101.714844 39.707031 C 101.71875 39.707031 101.722656 39.710938 101.726562 39.710938 L 101.976562 39.882812 C 101.996094 39.894531 102 39.921875 101.984375 39.941406 C 101.972656 39.960938 101.953125 39.964844 101.933594 39.957031 Z M 101.933594 39.957031 " fill-opacity="1" fill-rule="nonzero"></path></g></g></g><g clip-path="url(#0056ec9b91)"><g clip-path="url(#d4c5bbf455)"><g clip-path="url(#cf1391272e)"><path fill="#2e2e2e" d="M 102.414062 39.308594 C 102.410156 39.308594 102.410156 39.304688 102.40625 39.304688 L 99.84375 37.554688 C 99.824219 37.542969 99.816406 37.515625 99.832031 37.496094 C 99.84375 37.476562 99.871094 37.46875 99.890625 37.484375 L 102.070312 38.972656 C 102.074219 38.972656 102.078125 38.972656 102.082031 38.976562 L 102.453125 39.234375 C 102.472656 39.246094 102.480469 39.273438 102.464844 39.292969 C 102.453125 39.3125 102.429688 39.316406 102.414062 39.308594 Z M 102.414062 39.308594 " fill-opacity="1" fill-rule="nonzero"></path></g></g></g><g clip-path="url(#759a12ab8d)"><g clip-path="url(#8233631266)"><g clip-path="url(#5294f181c9)"><path fill="#2e2e2e" d="M 102.890625 38.660156 C 102.890625 38.65625 102.886719 38.65625 102.886719 38.65625 L 100.296875 36.886719 C 100.277344 36.875 100.273438 36.847656 100.285156 36.828125 C 100.300781 36.808594 100.324219 36.804688 100.347656 36.816406 L 102.425781 38.234375 C 102.429688 38.238281 102.433594 38.238281 102.4375 38.242188 L 102.933594 38.585938 C 102.953125 38.597656 102.960938 38.625 102.945312 38.644531 C 102.933594 38.660156 102.910156 38.667969 102.890625 38.660156 Z M 102.890625 38.660156 " fill-opacity="1" fill-rule="nonzero"></path></g></g></g><g clip-path="url(#cff731970d)"><g clip-path="url(#04bfb96f85)"><g clip-path="url(#e3c1e2900b)"><path fill="#2e2e2e" d="M 103.371094 38.007812 C 103.371094 38.007812 103.367188 38.007812 103.367188 38.003906 L 100.753906 36.222656 C 100.734375 36.207031 100.726562 36.179688 100.742188 36.160156 C 100.753906 36.140625 100.78125 36.136719 100.800781 36.148438 L 102.777344 37.5 C 102.785156 37.5 102.789062 37.503906 102.792969 37.507812 L 103.414062 37.933594 C 103.433594 37.949219 103.4375 37.976562 103.425781 37.996094 C 103.414062 38.011719 103.390625 38.019531 103.371094 38.007812 Z M 103.371094 38.007812 " fill-opacity="1" fill-rule="nonzero"></path></g></g></g><g clip-path="url(#664263998a)"><g clip-path="url(#6db212265c)"><g clip-path="url(#680f9bcf2c)"><path fill="#2e2e2e" d="M 103.851562 37.359375 C 103.851562 37.359375 103.847656 37.359375 103.847656 37.355469 L 101.207031 35.554688 C 101.1875 35.539062 101.183594 35.515625 101.195312 35.496094 C 101.210938 35.476562 101.238281 35.46875 101.257812 35.484375 L 103.132812 36.765625 C 103.140625 36.765625 103.144531 36.769531 103.148438 36.773438 L 103.894531 37.285156 C 103.914062 37.300781 103.917969 37.324219 103.90625 37.34375 C 103.894531 37.363281 103.871094 37.367188 103.851562 37.359375 Z M 103.851562 37.359375 " fill-opacity="1" fill-rule="nonzero"></path></g></g></g><g clip-path="url(#bc28e596d1)"><g clip-path="url(#88e77b6b3d)"><g clip-path="url(#367af14e09)"><path fill="#2e2e2e" d="M 104.332031 36.710938 C 104.332031 36.710938 104.328125 36.707031 104.328125 36.707031 L 104.324219 36.707031 L 101.664062 34.886719 C 101.644531 34.875 101.640625 34.847656 101.652344 34.828125 C 101.664062 34.808594 101.691406 34.804688 101.710938 34.816406 L 103.488281 36.03125 C 103.496094 36.03125 103.5 36.035156 103.507812 36.039062 L 104.375 36.636719 C 104.394531 36.648438 104.398438 36.675781 104.386719 36.695312 C 104.375 36.714844 104.351562 36.71875 104.332031 36.710938 Z M 104.332031 36.710938 " fill-opacity="1" fill-rule="nonzero"></path></g></g></g><g clip-path="url(#1a5834a392)"><g clip-path="url(#3e0b96ec96)"><g clip-path="url(#764a1e8b5d)"><path fill="#2e2e2e" d="M 104.8125 36.0625 C 104.808594 36.058594 104.808594 36.058594 104.804688 36.058594 L 102.121094 34.21875 C 102.101562 34.207031 102.09375 34.179688 102.109375 34.160156 C 102.121094 34.140625 102.148438 34.136719 102.167969 34.148438 L 103.84375 35.296875 C 103.851562 35.296875 103.855469 35.296875 103.863281 35.300781 L 104.855469 35.988281 C 104.875 36 104.878906 36.027344 104.867188 36.046875 C 104.855469 36.0625 104.832031 36.070312 104.8125 36.0625 Z M 104.8125 36.0625 " fill-opacity="1" fill-rule="nonzero"></path></g></g></g><g clip-path="url(#659894d58e)"><g clip-path="url(#4dd1c0e566)"><g clip-path="url(#5d73672c8a)"><path fill="#2e2e2e" d="M 105.292969 35.410156 C 105.289062 35.410156 105.289062 35.410156 105.285156 35.410156 L 102.574219 33.554688 C 102.554688 33.539062 102.550781 33.511719 102.5625 33.492188 C 102.578125 33.472656 102.601562 33.46875 102.625 33.480469 L 104.199219 34.558594 C 104.207031 34.5625 104.210938 34.5625 104.21875 34.566406 L 105.335938 35.335938 C 105.355469 35.351562 105.359375 35.378906 105.347656 35.398438 C 105.332031 35.414062 105.3125 35.421875 105.292969 35.410156 Z M 105.292969 35.410156 " fill-opacity="1" fill-rule="nonzero"></path></g></g></g><g clip-path="url(#b8c22cd337)"><g clip-path="url(#2d1134d107)"><g clip-path="url(#95ecfa641f)"><path fill="#2e2e2e" d="M 105.773438 34.761719 C 105.769531 34.761719 105.769531 34.761719 105.765625 34.757812 L 103.03125 32.886719 C 103.011719 32.871094 103.003906 32.847656 103.019531 32.828125 C 103.03125 32.808594 103.058594 32.800781 103.078125 32.816406 L 104.554688 33.824219 C 104.5625 33.828125 104.566406 33.828125 104.574219 33.832031 L 105.816406 34.6875 C 105.835938 34.703125 105.839844 34.730469 105.824219 34.75 C 105.8125 34.765625 105.789062 34.773438 105.773438 34.761719 Z M 105.773438 34.761719 " fill-opacity="1" fill-rule="nonzero"></path></g></g></g><g clip-path="url(#b94cfb0897)"><g clip-path="url(#97f48a869a)"><g clip-path="url(#b807a00fb0)"><path fill="#2e2e2e" d="M 106.253906 34.113281 C 106.25 34.113281 106.25 34.113281 106.246094 34.109375 L 103.484375 32.21875 C 103.464844 32.207031 103.460938 32.179688 103.472656 32.160156 C 103.488281 32.140625 103.515625 32.132812 103.535156 32.148438 L 104.910156 33.089844 C 104.917969 33.089844 104.921875 33.09375 104.929688 33.097656 L 106.292969 34.039062 C 106.3125 34.050781 106.320312 34.078125 106.304688 34.097656 C 106.292969 34.117188 106.269531 34.121094 106.253906 34.113281 Z M 106.253906 34.113281 " fill-opacity="1" fill-rule="nonzero"></path></g></g></g><g clip-path="url(#97bc4f904e)"><g clip-path="url(#9dacb4fe99)"><g clip-path="url(#dedfd159d7)"><path fill="#2e2e2e" d="M 106.730469 33.464844 C 106.730469 33.464844 106.726562 33.460938 106.726562 33.460938 L 103.941406 31.550781 C 103.921875 31.539062 103.917969 31.511719 103.929688 31.492188 C 103.945312 31.472656 103.96875 31.46875 103.988281 31.480469 L 105.265625 32.355469 C 105.273438 32.355469 105.277344 32.359375 105.285156 32.363281 L 106.773438 33.390625 C 106.792969 33.402344 106.800781 33.429688 106.785156 33.449219 C 106.773438 33.46875 106.75 33.472656 106.730469 33.464844 Z M 106.730469 33.464844 " fill-opacity="1" fill-rule="nonzero"></path></g></g></g><g clip-path="url(#eb8737060a)"><g clip-path="url(#0765380be0)"><g clip-path="url(#6e3b640e56)"><path fill="#2e2e2e" d="M 107.210938 32.816406 C 107.210938 32.8125 107.207031 32.8125 107.207031 32.8125 L 104.398438 30.886719 C 104.378906 30.871094 104.371094 30.84375 104.386719 30.824219 C 104.398438 30.804688 104.425781 30.800781 104.445312 30.8125 L 105.621094 31.621094 C 105.628906 31.621094 105.636719 31.625 105.640625 31.628906 L 107.253906 32.742188 C 107.273438 32.753906 107.277344 32.78125 107.265625 32.800781 C 107.253906 32.816406 107.230469 32.824219 107.210938 32.816406 Z M 107.210938 32.816406 " fill-opacity="1" fill-rule="nonzero"></path><path fill="#2e2e2e" d="M 107.691406 32.164062 C 107.691406 32.164062 107.6875 32.164062 107.6875 32.164062 L 107.6875 32.160156 L 104.851562 30.21875 C 104.832031 30.203125 104.828125 30.175781 104.839844 30.15625 C 104.855469 30.136719 104.882812 30.132812 104.902344 30.148438 L 105.976562 30.886719 C 105.984375 30.886719 105.992188 30.890625 105.996094 30.894531 L 107.734375 32.089844 C 107.753906 32.105469 107.757812 32.132812 107.746094 32.152344 C 107.734375 32.167969 107.710938 32.175781 107.691406 32.164062 Z M 107.691406 32.164062 " fill-opacity="1" fill-rule="nonzero"></path></g></g></g><g clip-path="url(#a14496b972)"><g clip-path="url(#894b0be531)"><g clip-path="url(#5f3994f4ae)"><path fill="#2e2e2e" d="M 108.171875 31.515625 C 108.171875 31.515625 108.167969 31.515625 108.164062 31.511719 L 105.308594 29.550781 C 105.289062 29.539062 105.28125 29.511719 105.296875 29.492188 C 105.308594 29.472656 105.335938 29.464844 105.355469 29.480469 L 106.335938 30.152344 C 106.339844 30.152344 106.347656 30.15625 106.351562 30.160156 L 108.214844 31.441406 C 108.234375 31.457031 108.238281 31.480469 108.226562 31.5 C 108.214844 31.519531 108.191406 31.523438 108.171875 31.515625 Z M 108.171875 31.515625 " fill-opacity="1" fill-rule="nonzero"></path></g></g></g><g clip-path="url(#61b27a7725)"><g clip-path="url(#31bc544635)"><g clip-path="url(#135e234910)"><path fill="#2e2e2e" d="M 108.652344 30.867188 C 108.648438 30.867188 108.648438 30.863281 108.644531 30.863281 L 105.761719 28.882812 C 105.742188 28.871094 105.738281 28.84375 105.75 28.824219 C 105.765625 28.804688 105.792969 28.800781 105.8125 28.8125 L 106.691406 29.417969 C 106.695312 29.417969 106.703125 29.421875 106.707031 29.421875 L 108.695312 30.792969 C 108.714844 30.804688 108.71875 30.832031 108.707031 30.851562 C 108.695312 30.871094 108.671875 30.875 108.652344 30.867188 Z M 108.652344 30.867188 " fill-opacity="1" fill-rule="nonzero"></path></g></g></g><g clip-path="url(#b0655e9906)"><g clip-path="url(#068a4db6d2)"><g clip-path="url(#cc9b375565)"><path fill="#2e2e2e" d="M 109.132812 30.21875 C 109.128906 30.214844 109.128906 30.214844 109.125 30.214844 L 106.21875 28.214844 C 106.199219 28.203125 106.195312 28.175781 106.207031 28.15625 C 106.222656 28.136719 106.25 28.132812 106.265625 28.144531 L 107.046875 28.683594 C 107.054688 28.683594 107.058594 28.683594 107.0625 28.6875 L 109.175781 30.144531 C 109.195312 30.15625 109.199219 30.183594 109.183594 30.203125 C 109.171875 30.21875 109.152344 30.226562 109.132812 30.21875 Z M 109.132812 30.21875 " fill-opacity="1" fill-rule="nonzero"></path></g></g></g><g clip-path="url(#0e0fd8f005)"><g clip-path="url(#e0bc2576b2)"><g clip-path="url(#502edc31d1)"><path fill="#2e2e2e" d="M 109.613281 29.570312 C 109.609375 29.566406 109.609375 29.566406 109.605469 29.566406 L 106.671875 27.550781 C 106.652344 27.535156 106.648438 27.507812 106.664062 27.488281 C 106.675781 27.46875 106.703125 27.464844 106.722656 27.480469 L 107.402344 27.945312 C 107.410156 27.949219 107.414062 27.949219 107.421875 27.953125 L 109.65625 29.496094 C 109.675781 29.507812 109.679688 29.535156 109.664062 29.554688 C 109.652344 29.570312 109.628906 29.578125 109.613281 29.570312 Z M 109.613281 29.570312 " fill-opacity="1" fill-rule="nonzero"></path></g></g></g><g clip-path="url(#771c7da9e2)"><g clip-path="url(#2044193334)"><g clip-path="url(#b120b7ba57)"><path fill="#2e2e2e" d="M 110.09375 28.917969 C 110.089844 28.917969 110.085938 28.917969 110.085938 28.914062 L 107.128906 26.882812 C 107.109375 26.871094 107.105469 26.84375 107.117188 26.824219 C 107.132812 26.804688 107.160156 26.800781 107.179688 26.8125 L 107.761719 27.210938 C 107.765625 27.214844 107.769531 27.214844 107.777344 27.21875 L 110.132812 28.84375 C 110.152344 28.859375 110.160156 28.886719 110.144531 28.90625 C 110.132812 28.921875 110.109375 28.929688 110.09375 28.917969 Z M 110.09375 28.917969 " fill-opacity="1" fill-rule="nonzero"></path><path fill="#2e2e2e" d="M 110.570312 28.269531 C 110.570312 28.269531 110.566406 28.269531 110.566406 28.265625 L 107.585938 26.214844 C 107.566406 26.203125 107.558594 26.175781 107.574219 26.15625 C 107.585938 26.136719 107.613281 26.132812 107.632812 26.144531 L 108.117188 26.476562 C 108.121094 26.480469 108.128906 26.480469 108.132812 26.484375 L 110.613281 28.195312 C 110.632812 28.210938 110.640625 28.234375 110.625 28.253906 C 110.613281 28.273438 110.589844 28.277344 110.570312 28.269531 Z M 110.570312 28.269531 " fill-opacity="1" fill-rule="nonzero"></path></g></g></g><g clip-path="url(#373c0974aa)"><g clip-path="url(#70dead3919)"><g clip-path="url(#24a7a821a9)"><path fill="#2e2e2e" d="M 111.050781 27.621094 C 111.050781 27.621094 111.046875 27.617188 111.046875 27.617188 L 108.039062 25.546875 C 108.019531 25.535156 108.015625 25.507812 108.027344 25.488281 C 108.042969 25.46875 108.070312 25.464844 108.089844 25.476562 L 108.472656 25.742188 C 108.480469 25.746094 108.484375 25.746094 108.488281 25.75 L 111.09375 27.546875 C 111.113281 27.558594 111.117188 27.585938 111.105469 27.605469 C 111.09375 27.625 111.070312 27.628906 111.050781 27.621094 Z M 111.050781 27.621094 " fill-opacity="1" fill-rule="nonzero"></path></g></g></g><g clip-path="url(#3bb3a6630e)"><g clip-path="url(#16764b51d3)"><g clip-path="url(#67cb497c14)"><path fill="#2e2e2e" d="M 111.53125 26.972656 C 111.53125 26.96875 111.527344 26.96875 111.527344 26.96875 L 111.523438 26.96875 L 108.496094 24.882812 C 108.476562 24.867188 108.472656 24.839844 108.484375 24.820312 C 108.496094 24.800781 108.523438 24.796875 108.542969 24.8125 L 108.832031 25.007812 C 108.835938 25.011719 108.839844 25.011719 108.84375 25.015625 L 111.574219 26.898438 C 111.59375 26.910156 111.597656 26.9375 111.585938 26.957031 C 111.574219 26.972656 111.550781 26.980469 111.53125 26.972656 Z M 111.53125 26.972656 " fill-opacity="1" fill-rule="nonzero"></path></g></g></g><g clip-path="url(#5b0ddbf0c5)"><g clip-path="url(#b27127f5ea)"><g clip-path="url(#fb49bea637)"><path fill="#2e2e2e" d="M 112.011719 26.320312 C 112.007812 26.320312 112.007812 26.320312 112.003906 26.320312 L 112.003906 26.316406 L 108.949219 24.214844 C 108.929688 24.203125 108.925781 24.175781 108.941406 24.15625 C 108.953125 24.136719 108.980469 24.132812 109 24.144531 L 109.191406 24.273438 C 109.191406 24.277344 109.195312 24.277344 109.199219 24.28125 L 112.054688 26.246094 C 112.074219 26.261719 112.078125 26.289062 112.066406 26.308594 C 112.054688 26.324219 112.03125 26.332031 112.011719 26.320312 Z M 112.011719 26.320312 " fill-opacity="1" fill-rule="nonzero"></path></g></g></g><g clip-path="url(#807945d100)"><g clip-path="url(#4c961f84fa)"><g clip-path="url(#772f790a22)"><path fill="#2e2e2e" d="M 112.492188 25.671875 C 112.488281 25.671875 112.488281 25.671875 112.484375 25.667969 L 109.40625 23.546875 C 109.386719 23.535156 109.382812 23.507812 109.394531 23.488281 C 109.410156 23.46875 109.433594 23.464844 109.457031 23.476562 L 109.546875 23.539062 C 109.550781 23.542969 109.550781 23.542969 109.554688 23.542969 L 112.535156 25.597656 C 112.554688 25.613281 112.558594 25.640625 112.546875 25.660156 C 112.535156 25.675781 112.511719 25.679688 112.492188 25.671875 Z M 112.492188 25.671875 " fill-opacity="1" fill-rule="nonzero"></path></g></g></g><g clip-path="url(#c68974fdcf)"><g clip-path="url(#83909ec789)"><g clip-path="url(#98490fd9a5)"><path fill="#2e2e2e" d="M 112.972656 25.023438 C 112.96875 25.023438 112.96875 25.019531 112.964844 25.019531 L 109.863281 22.878906 C 109.84375 22.867188 109.839844 22.847656 109.847656 22.828125 C 109.847656 22.824219 109.851562 22.824219 109.851562 22.820312 C 109.863281 22.800781 109.890625 22.796875 109.910156 22.808594 L 113.015625 24.949219 C 113.03125 24.960938 113.039062 24.984375 113.027344 25.003906 C 113.027344 25.003906 113.027344 25.007812 113.023438 25.007812 C 113.011719 25.027344 112.992188 25.03125 112.972656 25.023438 Z M 112.972656 25.023438 " fill-opacity="1" fill-rule="nonzero"></path></g></g></g><g clip-path="url(#3c2cb664ff)"><g clip-path="url(#c0d978b797)"><g clip-path="url(#075cdb7e01)"><path fill="#2e2e2e" d="M 102.027344 41.664062 C 102.023438 41.664062 102.019531 41.660156 102.019531 41.660156 C 102 41.644531 101.996094 41.617188 102.011719 41.601562 L 113.695312 26.175781 C 113.707031 26.160156 113.734375 26.15625 113.753906 26.167969 C 113.773438 26.183594 113.777344 26.210938 113.761719 26.230469 L 102.078125 41.652344 C 102.066406 41.667969 102.042969 41.671875 102.027344 41.664062 Z M 102.027344 41.664062 " fill-opacity="1" fill-rule="nonzero"></path></g></g></g><g fill="#d9d9d9" fill-opacity="1"><g transform="translate(29.791849, 35.270436)"><g><path d="M 6.96875 -18.109375 L 7.046875 -18.109375 L 6.96875 -18.140625 Z M 7.078125 -10.1875 L 7.078125 -2.984375 C 7.078125 -2.140625 7.117188 -1.4375 7.203125 -0.875 C 7.285156 -0.3125 7.40625 0.0195312 7.5625 0.125 L 7.53125 0.15625 C 7.09375 -0.101562 6.742188 -0.4375 6.484375 -0.84375 C 5.941406 -0.0820312 5.164062 0.296875 4.15625 0.296875 C 3.25 0.296875 2.535156 -0.00390625 2.015625 -0.609375 C 1.472656 -1.191406 1.203125 -1.960938 1.203125 -2.921875 L 1.203125 -18.171875 C 1.203125 -19.140625 1.472656 -19.921875 2.015625 -20.515625 C 2.535156 -21.097656 3.25 -21.390625 4.15625 -21.390625 C 5.0625 -21.390625 5.785156 -21.09375 6.328125 -20.5 C 6.847656 -19.894531 7.109375 -19.097656 7.109375 -18.109375 L 7.109375 -17.140625 L 5.390625 -17.140625 L 5.390625 -18.390625 C 5.390625 -19.210938 5.28125 -19.875 5.0625 -20.375 C 4.84375 -20.851562 4.539062 -21.09375 4.15625 -21.09375 C 3.78125 -21.09375 3.476562 -20.851562 3.25 -20.375 C 3.007812 -19.894531 2.890625 -19.25 2.890625 -18.4375 L 2.890625 -6.96875 C 2.890625 -5.351562 2.898438 -3.914062 2.921875 -2.65625 C 2.921875 -1.851562 3.03125 -1.207031 3.25 -0.71875 C 3.476562 -0.238281 3.78125 0 4.15625 0 C 4.539062 0 4.851562 -0.25 5.09375 -0.75 C 5.3125 -1.25 5.421875 -1.921875 5.421875 -2.765625 L 5.421875 -4.546875 C 5.421875 -5.234375 5.421875 -5.925781 5.421875 -6.625 C 5.398438 -7.3125 5.390625 -7.957031 5.390625 -8.5625 L 5.390625 -9.890625 L 4.1875 -9.890625 L 4.1875 -10.1875 Z M 7.078125 -10.1875 "></path></g></g></g><g fill="#d9d9d9" fill-opacity="1"><g transform="translate(38.105203, 35.270436)"><g><path d="M 5.296875 -15.34375 C 5.296875 -16.1875 5.175781 -16.859375 4.9375 -17.359375 C 4.695312 -17.859375 4.378906 -18.109375 3.984375 -18.109375 C 3.578125 -18.109375 3.253906 -17.859375 3.015625 -17.359375 C 2.773438 -16.859375 2.65625 -16.1875 2.65625 -15.34375 L 2.65625 -2.75 C 2.65625 -1.90625 2.773438 -1.226562 3.015625 -0.71875 C 3.253906 -0.21875 3.578125 0.03125 3.984375 0.03125 C 4.378906 0.03125 4.695312 -0.21875 4.9375 -0.71875 C 5.175781 -1.226562 5.296875 -1.90625 5.296875 -2.75 Z M 6.90625 -3.015625 C 6.90625 -2.003906 6.644531 -1.203125 6.125 -0.609375 C 5.570312 -0.00390625 4.859375 0.296875 3.984375 0.296875 C 3.097656 0.296875 2.394531 -0.00390625 1.875 -0.609375 C 1.332031 -1.203125 1.0625 -2.003906 1.0625 -3.015625 L 1.0625 -15.0625 C 1.0625 -16.070312 1.332031 -16.878906 1.875 -17.484375 C 2.394531 -18.085938 3.097656 -18.390625 3.984375 -18.390625 C 4.859375 -18.390625 5.570312 -18.085938 6.125 -17.484375 C 6.644531 -16.878906 6.90625 -16.070312 6.90625 -15.0625 Z M 6.90625 -3.015625 "></path></g></g></g><g fill="#d9d9d9" fill-opacity="1"><g transform="translate(46.057107, 35.270436)"><g><path d="M 1.0625 0 L 1.0625 -21.09375 L 2.6875 -21.09375 L 2.6875 0 Z M 1.0625 0 "></path></g></g></g><g fill="#d9d9d9" fill-opacity="1"><g transform="translate(49.792092, 35.270436)"><g><path d="M 5.296875 0.03125 L 5.296875 -2.296875 C 5.203125 -1.484375 4.972656 -0.847656 4.609375 -0.390625 C 4.242188 0.0664062 3.800781 0.296875 3.28125 0.296875 C 2.625 0.296875 2.09375 0.00390625 1.6875 -0.578125 C 1.28125 -1.140625 1.078125 -1.898438 1.078125 -2.859375 L 1.078125 -15.125 C 1.078125 -16.113281 1.28125 -16.910156 1.6875 -17.515625 C 2.09375 -18.097656 2.625 -18.390625 3.28125 -18.390625 C 3.800781 -18.390625 4.242188 -18.175781 4.609375 -17.75 C 4.972656 -17.332031 5.203125 -16.757812 5.296875 -16.03125 L 5.296875 -21.09375 L 6.9375 -21.09375 L 6.9375 0 Z M 5.296875 -15.125 C 5.296875 -16.03125 5.128906 -16.753906 4.796875 -17.296875 C 4.429688 -17.816406 3.957031 -18.078125 3.375 -18.078125 C 3.15625 -18.078125 2.984375 -17.816406 2.859375 -17.296875 C 2.722656 -16.753906 2.65625 -16.03125 2.65625 -15.125 L 2.65625 -3.1875 C 2.65625 -2.207031 2.722656 -1.425781 2.859375 -0.84375 C 2.984375 -0.238281 3.15625 0.0625 3.375 0.0625 C 3.957031 0.0625 4.429688 -0.238281 4.796875 -0.84375 C 5.128906 -1.425781 5.296875 -2.207031 5.296875 -3.1875 Z M 5.296875 -15.125 "></path></g></g></g><g fill="#d9d9d9" fill-opacity="1"><g transform="translate(57.774117, 35.270436)"><g></g></g></g><g fill="#d9d9d9" fill-opacity="1"><g transform="translate(61.328377, 35.270436)"><g><path d="M 1.0625 0 L 1.0625 -21.09375 L 2.6875 -21.09375 L 2.6875 -15.9375 C 2.800781 -16.707031 3.039062 -17.3125 3.40625 -17.75 C 3.75 -18.175781 4.179688 -18.390625 4.703125 -18.390625 C 5.367188 -18.390625 5.898438 -18.109375 6.296875 -17.546875 C 6.703125 -16.960938 6.90625 -16.1875 6.90625 -15.21875 L 6.90625 -2.890625 C 6.90625 -1.929688 6.703125 -1.160156 6.296875 -0.578125 C 5.898438 0.00390625 5.367188 0.296875 4.703125 0.296875 C 4.179688 0.296875 3.75 0.078125 3.40625 -0.359375 C 3.039062 -0.804688 2.800781 -1.410156 2.6875 -2.171875 L 2.6875 0 Z M 2.6875 -3.34375 C 2.6875 -2.320312 2.851562 -1.507812 3.1875 -0.90625 C 3.53125 -0.28125 3.992188 0.03125 4.578125 0.03125 C 4.796875 0.03125 4.976562 -0.269531 5.125 -0.875 C 5.238281 -1.476562 5.296875 -2.28125 5.296875 -3.28125 L 5.296875 -14.859375 C 5.296875 -15.835938 5.238281 -16.628906 5.125 -17.234375 C 4.976562 -17.816406 4.796875 -18.109375 4.578125 -18.109375 C 3.992188 -18.109375 3.53125 -17.804688 3.1875 -17.203125 C 2.851562 -16.597656 2.6875 -15.785156 2.6875 -14.765625 Z M 2.6875 -3.34375 "></path></g></g></g><g fill="#d9d9d9" fill-opacity="1"><g transform="translate(69.280281, 35.270436)"><g><path d="M 1.03125 -15.25 C 1.03125 -16.195312 1.28125 -16.960938 1.78125 -17.546875 C 2.257812 -18.109375 2.910156 -18.390625 3.734375 -18.390625 C 4.722656 -18.390625 5.4375 -18.109375 5.875 -17.546875 C 6.300781 -16.960938 6.515625 -16.195312 6.515625 -15.25 L 6.515625 0 L 4.875 0 L 4.875 -2.53125 C 4.800781 -1.664062 4.59375 -0.984375 4.25 -0.484375 C 3.882812 0.0351562 3.441406 0.296875 2.921875 0.296875 C 2.316406 0.296875 1.835938 0.00390625 1.484375 -0.578125 C 1.097656 -1.140625 0.90625 -1.898438 0.90625 -2.859375 L 0.90625 -6.546875 C 0.90625 -7.085938 1.085938 -7.609375 1.453125 -8.109375 C 1.804688 -8.585938 2.285156 -8.957031 2.890625 -9.21875 C 3.492188 -9.476562 3.976562 -9.78125 4.34375 -10.125 C 4.695312 -10.445312 4.875 -10.96875 4.875 -11.6875 L 4.875 -15.484375 C 4.875 -16.273438 4.804688 -16.910156 4.671875 -17.390625 C 4.523438 -17.867188 4.222656 -18.109375 3.765625 -18.109375 C 3.441406 -18.109375 3.191406 -17.867188 3.015625 -17.390625 C 2.816406 -16.910156 2.71875 -16.273438 2.71875 -15.484375 C 2.71875 -15.203125 2.71875 -14.875 2.71875 -14.5 C 2.695312 -14.113281 2.6875 -13.726562 2.6875 -13.34375 L 2.6875 -12 L 1.0625 -12 Z M 4.859375 -10.9375 C 4.753906 -10.414062 4.539062 -10.023438 4.21875 -9.765625 C 3.875 -9.484375 3.453125 -9.234375 2.953125 -9.015625 C 2.816406 -8.953125 2.707031 -8.695312 2.625 -8.25 C 2.539062 -7.789062 2.5 -7.222656 2.5 -6.546875 C 2.5 -6.015625 2.5 -5.550781 2.5 -5.15625 C 2.476562 -4.726562 2.46875 -4.375 2.46875 -4.09375 L 2.46875 -3.21875 C 2.445312 -2.238281 2.5 -1.457031 2.625 -0.875 C 2.71875 -0.269531 2.847656 0.03125 3.015625 0.03125 C 3.578125 0.03125 4.03125 -0.269531 4.375 -0.875 C 4.695312 -1.457031 4.859375 -2.238281 4.859375 -3.21875 L 4.875 -3.21875 L 4.875 -10.90625 Z M 4.859375 -10.9375 "></path></g></g></g><g fill="#d9d9d9" fill-opacity="1"><g transform="translate(76.870734, 35.270436)"><g><path d="M 5.03125 -14.859375 C 5.03125 -15.835938 4.976562 -16.628906 4.875 -17.234375 C 4.757812 -17.816406 4.617188 -18.109375 4.453125 -18.109375 C 3.929688 -18.109375 3.507812 -17.804688 3.1875 -17.203125 C 2.851562 -16.597656 2.6875 -15.785156 2.6875 -14.765625 L 2.6875 0 L 1.0625 0 L 1.0625 -18.078125 L 2.6875 -18.078125 L 2.6875 -15.96875 C 2.800781 -16.71875 3.03125 -17.3125 3.375 -17.75 C 3.695312 -18.175781 4.097656 -18.390625 4.578125 -18.390625 C 5.203125 -18.390625 5.707031 -18.109375 6.09375 -17.546875 C 6.445312 -16.960938 6.625 -16.1875 6.625 -15.21875 L 6.625 -13.4375 C 6.625 -13.070312 6.632812 -12.703125 6.65625 -12.328125 L 5.03125 -12.328125 Z M 5.03125 -14.859375 "></path></g></g></g><g fill="#d9d9d9" fill-opacity="1"><g transform="translate(83.82865, 35.270436)"><g><path d="M 1.0625 0 L 1.0625 -21.09375 L 2.6875 -21.09375 L 2.6875 -15.9375 C 2.800781 -16.707031 3.039062 -17.3125 3.40625 -17.75 C 3.75 -18.175781 4.179688 -18.390625 4.703125 -18.390625 C 5.367188 -18.390625 5.898438 -18.109375 6.296875 -17.546875 C 6.703125 -16.960938 6.90625 -16.1875 6.90625 -15.21875 L 6.90625 -2.890625 C 6.90625 -1.929688 6.703125 -1.160156 6.296875 -0.578125 C 5.898438 0.00390625 5.367188 0.296875 4.703125 0.296875 C 4.179688 0.296875 3.75 0.078125 3.40625 -0.359375 C 3.039062 -0.804688 2.800781 -1.410156 2.6875 -2.171875 L 2.6875 0 Z M 2.6875 -3.34375 C 2.6875 -2.320312 2.851562 -1.507812 3.1875 -0.90625 C 3.53125 -0.28125 3.992188 0.03125 4.578125 0.03125 C 4.796875 0.03125 4.976562 -0.269531 5.125 -0.875 C 5.238281 -1.476562 5.296875 -2.28125 5.296875 -3.28125 L 5.296875 -14.859375 C 5.296875 -15.835938 5.238281 -16.628906 5.125 -17.234375 C 4.976562 -17.816406 4.796875 -18.109375 4.578125 -18.109375 C 3.992188 -18.109375 3.53125 -17.804688 3.1875 -17.203125 C 2.851562 -16.597656 2.6875 -15.785156 2.6875 -14.765625 Z M 2.6875 -3.34375 "></path></g></g></g><g fill="#d9d9d9" fill-opacity="1"><g transform="translate(91.780554, 35.270436)"><g><path d="M 6.59375 -2.984375 C 6.59375 -1.992188 6.34375 -1.203125 5.84375 -0.609375 C 5.34375 -0.00390625 4.671875 0.296875 3.828125 0.296875 C 2.984375 0.296875 2.3125 -0.00390625 1.8125 -0.609375 C 1.3125 -1.203125 1.0625 -1.992188 1.0625 -2.984375 L 1.0625 -15.125 C 1.0625 -16.113281 1.3125 -16.910156 1.8125 -17.515625 C 2.3125 -18.097656 2.984375 -18.390625 3.828125 -18.390625 C 4.773438 -18.390625 5.53125 -18.097656 6.09375 -17.515625 C 6.65625 -16.910156 6.9375 -16.113281 6.9375 -15.125 L 6.9375 -9.4375 L 2.65625 -9.4375 L 2.65625 -2.890625 C 2.65625 -2.003906 2.765625 -1.300781 2.984375 -0.78125 C 3.203125 -0.238281 3.484375 0.03125 3.828125 0.03125 C 4.566406 0.03125 5.160156 -0.238281 5.609375 -0.78125 C 6.046875 -1.320312 6.265625 -2.046875 6.265625 -2.953125 L 6.265625 -6.75 L 6.59375 -6.75 Z M 5.296875 -15.125 C 5.296875 -16.03125 5.164062 -16.753906 4.90625 -17.296875 C 4.625 -17.835938 4.265625 -18.109375 3.828125 -18.109375 C 3.484375 -18.109375 3.203125 -17.847656 2.984375 -17.328125 C 2.765625 -16.785156 2.65625 -16.0625 2.65625 -15.15625 L 2.65625 -9.703125 L 5.296875 -9.703125 Z M 5.296875 -15.125 "></path></g></g></g><g fill="#d9d9d9" fill-opacity="1"><g transform="translate(99.431249, 35.270436)"><g><path d="M 5.03125 -14.859375 C 5.03125 -15.835938 4.976562 -16.628906 4.875 -17.234375 C 4.757812 -17.816406 4.617188 -18.109375 4.453125 -18.109375 C 3.929688 -18.109375 3.507812 -17.804688 3.1875 -17.203125 C 2.851562 -16.597656 2.6875 -15.785156 2.6875 -14.765625 L 2.6875 0 L 1.0625 0 L 1.0625 -18.078125 L 2.6875 -18.078125 L 2.6875 -15.96875 C 2.800781 -16.71875 3.03125 -17.3125 3.375 -17.75 C 3.695312 -18.175781 4.097656 -18.390625 4.578125 -18.390625 C 5.203125 -18.390625 5.707031 -18.109375 6.09375 -17.546875 C 6.445312 -16.960938 6.625 -16.1875 6.625 -15.21875 L 6.625 -13.4375 C 6.625 -13.070312 6.632812 -12.703125 6.65625 -12.328125 L 5.03125 -12.328125 Z M 5.03125 -14.859375 "></path></g></g></g><g clip-path="url(#6d574efb9a)"><g clip-path="url(#6c183722e1)"><g clip-path="url(#84452adafa)"><path fill="#eeba2b" d="M 28.667969 23.152344 C 28.726562 23.34375 28.867188 23.453125 28.847656 23.632812 C 28.539062 23.675781 28.171875 23.503906 27.628906 23.902344 C 26.449219 24.761719 26.90625 27.15625 28.4375 27.269531 C 29.53125 27.347656 30.878906 25.90625 29.703125 24.222656 C 29.496094 23.925781 29.019531 23.363281 28.667969 23.152344 M 30.433594 14.355469 C 30.417969 14.890625 31.125 14.917969 31.195312 14.414062 C 31.253906 13.949219 30.445312 13.828125 30.433594 14.355469 Z M 25.238281 20.445312 C 25.214844 20.621094 25.277344 20.769531 25.226562 20.957031 C 24.839844 20.484375 24.339844 20.390625 23.859375 20.433594 C 23.460938 20.46875 22.992188 20.742188 22.617188 21.195312 C 21.867188 22.09375 21.910156 23.308594 22.691406 23.933594 C 23.519531 24.59375 24.839844 24.128906 25.335938 23.253906 C 25.621094 22.753906 25.667969 22.230469 25.625 21.785156 C 25.597656 21.480469 25.425781 20.703125 25.238281 20.445312 Z M 37.960938 2.210938 C 37.609375 1.859375 37.507812 2.246094 37.066406 2.929688 L 33.160156 9 L 35.285156 2.144531 C 35.53125 1.367188 35.757812 1.039062 35.265625 0.996094 C 35.03125 1.28125 32.839844 6.214844 32.65625 6.628906 C 32.445312 7.113281 31.097656 10.269531 30.125 12.734375 C 30.867188 12.179688 31.410156 11.679688 31.417969 11.675781 C 31.363281 11.75 31.308594 11.828125 31.253906 11.902344 C 31.253906 11.902344 30.285156 13.296875 29.097656 14.796875 C 29.046875 14.886719 29 14.980469 28.953125 15.070312 C 28.148438 16.558594 28.253906 16.464844 27.242188 17.914062 C 26.484375 19.003906 26.230469 19.535156 25.167969 19.742188 C 24.472656 19.878906 24.171875 19.734375 23.359375 20.03125 C 22.242188 20.445312 21.457031 21.570312 21.53125 22.710938 C 21.628906 24.210938 23.085938 25.109375 24.402344 24.707031 C 24.851562 24.570312 25.082031 24.347656 25.59375 24.386719 C 25.980469 24.417969 26.695312 24.414062 26.273438 23.859375 C 25.859375 23.308594 26.019531 23.265625 26.117188 22.628906 C 26.25 21.734375 26.082031 21.007812 26.511719 20.035156 C 27.03125 18.867188 28.90625 17.289062 30.089844 16.664062 C 30.265625 16.570312 30.523438 16.484375 30.660156 16.390625 C 31.140625 16.0625 34.949219 8.589844 35.324219 7.828125 C 35.519531 7.421875 37.890625 2.574219 37.960938 2.210938 Z M 28.609375 29.292969 C 28.929688 29.144531 29.785156 27.878906 30.03125 27.484375 C 30.316406 27.023438 30.527344 26.578125 30.617188 26.082031 C 30.90625 24.492188 29.675781 23.464844 29.511719 22.496094 C 29.363281 21.597656 29.488281 20.9375 29.792969 19.871094 C 29.925781 19.417969 30.109375 18.941406 30.3125 18.496094 C 30.460938 18.171875 31.003906 17.273438 30.984375 17.046875 C 30.828125 16.964844 30.699219 17.046875 30.5625 17.085938 C 30.125 17.207031 29.722656 17.476562 29.359375 17.78125 C 28.992188 18.085938 29.089844 18.207031 29.085938 18.625 C 29.070312 19.386719 29.027344 20.640625 28.953125 21.363281 C 28.867188 22.164062 28.480469 22.648438 27.835938 23.082031 C 26.464844 24.011719 26.144531 25.34375 26.671875 26.476562 C 27.488281 28.214844 29.511719 27.117188 28.539062 28.863281 C 28.425781 29.066406 28.359375 29.183594 28.609375 29.292969 Z M 28.609375 29.292969 " fill-opacity="1" fill-rule="evenodd"></path></g></g></g></svg>